<svg xmlns="http://www.w3.org/2000/svg" width="1920.001" height="208.448" viewBox="0 0 1920.001 208.448"><g transform="translate(-2 -849.553)"><path d="M2790.939,195V16.682a61.018,61.018,0,0,1,20.159,6.226c109.248,53.309,167.991,159.2,363.205,62.643s413.909-64.343,523.624-8.247,255.408,159.122,511.515,8.247c212.26-125.045,432.355-54.32,501.5-26.438V195Z" transform="translate(-2788.939 863)" fill="#f1da90" opacity="0.48"/><path d="M2822.032,195.062V8.451c103.047-25.838,296.232-49.9,479.042,60,266.117,159.987,424.087,62.6,542.295,10.7s351.062-75.947,554.549,27.6c177.506,90.327,250.338,23.134,344.115-28.115V195.062Z" transform="translate(-2820.033 862.939)" fill="#feeca7"/></g></svg>