<svg xmlns="http://www.w3.org/2000/svg" width="182.845" height="49.436" viewBox="0 0 182.845 49.436">
  <g id="logo" transform="translate(-36.248 -32.507)">
    <g id="Group_1" data-name="Group 1" transform="translate(38.337 34.687)">
      <path id="Path_8" data-name="Path 8" d="M6.5,9.681V49.752a2.908,2.908,0,0,0,4.283,2.781l34.25-20.494a2.77,2.77,0,0,0,0-4.639L10.783,6.9A2.908,2.908,0,0,0,6.5,9.681Z" transform="translate(-7.076 -7.176)" fill="none" stroke="#fff" stroke-miterlimit="10" stroke-width="3"/>
      <path id="Exclusion_1" data-name="Exclusion 1" d="M-599.184-446.965h0a2.819,2.819,0,0,1-1.538-.455A2.822,2.822,0,0,1-602-450.005v-38.91a2.823,2.823,0,0,1,1.276-2.588,2.816,2.816,0,0,1,1.539-.457,2.833,2.833,0,0,1,1.344.34l33.259,19.909a2.682,2.682,0,0,1,1.22,2.253,2.681,2.681,0,0,1-1.22,2.252l-33.259,19.9A2.827,2.827,0,0,1-599.184-446.965Zm6.445-18.551a3.605,3.605,0,0,0-3.614,3.588,3.605,3.605,0,0,0,3.614,3.588,3.606,3.606,0,0,0,3.614-3.588,3.633,3.633,0,0,0-.072-.716l7.374-4.117a3.617,3.617,0,0,0,2.454.956,3.6,3.6,0,0,0,3.614-3.586,3.605,3.605,0,0,0-3.614-3.588,3.611,3.611,0,0,0-2.454.957l-7.374-4.117a3.619,3.619,0,0,0,.072-.716,3.6,3.6,0,0,0-3.614-3.586,3.6,3.6,0,0,0-3.614,3.586,3.605,3.605,0,0,0,3.614,3.588,3.61,3.61,0,0,0,2.453-.957l7.375,4.118a3.551,3.551,0,0,0-.072.715,3.547,3.547,0,0,0,.072.715l-7.375,4.118A3.613,3.613,0,0,0-592.739-465.516Zm0,4.977a1.4,1.4,0,0,1-1.4-1.389,1.4,1.4,0,0,1,1.4-1.389,1.4,1.4,0,0,1,1.4,1.389A1.4,1.4,0,0,1-592.739-460.539Zm13.37-7.466a1.4,1.4,0,0,1-1.4-1.388,1.4,1.4,0,0,1,1.4-1.39,1.4,1.4,0,0,1,1.4,1.39A1.4,1.4,0,0,1-579.369-468Zm-13.37-7.464a1.4,1.4,0,0,1-1.4-1.39,1.4,1.4,0,0,1,1.4-1.388,1.4,1.4,0,0,1,1.4,1.388A1.4,1.4,0,0,1-592.739-475.468Z" transform="translate(602 492)" fill="#fff"/>
    </g>
    <path id="Path_7" data-name="Path 7" d="M14.82-20.748a10.419,10.419,0,0,1,5.187,1.311,9.414,9.414,0,0,1,3.667,3.686A11.128,11.128,0,0,1,25-10.222a11.128,11.128,0,0,1-1.33,5.529A9.414,9.414,0,0,1,20-1.007,10.419,10.419,0,0,1,14.82.3,7.9,7.9,0,0,1,8.664-2.17V7.372H2.736V-20.444H8.4v2.356a7.862,7.862,0,0,1,6.42-2.66ZM13.794-4.56A4.937,4.937,0,0,0,17.537-6.1,5.737,5.737,0,0,0,19-10.222a5.737,5.737,0,0,0-1.463-4.123,4.937,4.937,0,0,0-3.743-1.539,4.937,4.937,0,0,0-3.743,1.539,5.737,5.737,0,0,0-1.463,4.123A5.737,5.737,0,0,0,10.051-6.1a4.937,4.937,0,0,0,3.743,1.54Zm34.124-5.586q0,.114-.114,1.6H32.338a4.817,4.817,0,0,0,1.976,3,6.545,6.545,0,0,0,3.876,1.1,7.849,7.849,0,0,0,2.831-.475,6.857,6.857,0,0,0,2.3-1.5L46.474-3Q43.586.3,38.038.3A13.345,13.345,0,0,1,31.92-1.045a9.889,9.889,0,0,1-4.1-3.743,10.313,10.313,0,0,1-1.444-5.434A10.447,10.447,0,0,1,27.8-15.637,9.983,9.983,0,0,1,31.711-19.4a11.492,11.492,0,0,1,5.567-1.349,11.4,11.4,0,0,1,5.434,1.292,9.43,9.43,0,0,1,3.819,3.7,11.048,11.048,0,0,1,1.387,5.611Zm-10.6-6.118a5.1,5.1,0,0,0-3.382,1.14,4.853,4.853,0,0,0-1.672,3.116h10.07a4.9,4.9,0,0,0-1.672-3.1,5,5,0,0,0-3.346-1.156Zm21.166-4.484q4.75,0,7.3,2.261t2.546,6.821V0H62.776V-2.546Q61.1.3,56.544.3a9.672,9.672,0,0,1-4.085-.8,6.091,6.091,0,0,1-2.641-2.2,5.736,5.736,0,0,1-.912-3.192,5.327,5.327,0,0,1,2.147-4.484Q53.2-12.01,57.684-12.01H62.4a3.778,3.778,0,0,0-1.178-2.983,5.189,5.189,0,0,0-3.534-1.045,10.316,10.316,0,0,0-3.209.512A8.5,8.5,0,0,0,51.8-14.138L49.67-18.28a12.84,12.84,0,0,1,4.005-1.82,17.959,17.959,0,0,1,4.807-.648ZM58.026-3.686a5.163,5.163,0,0,0,2.7-.7A3.847,3.847,0,0,0,62.4-6.46V-8.55H58.33q-3.648,0-3.648,2.394a2.132,2.132,0,0,0,.893,1.8,4.023,4.023,0,0,0,2.451.67ZM78.28-17.746a6.592,6.592,0,0,1,2.869-2.242,10.648,10.648,0,0,1,4.161-.76v5.472q-.988-.076-1.33-.076a5.434,5.434,0,0,0-3.99,1.425,5.759,5.759,0,0,0-1.444,4.275V0H72.618V-20.444H78.28Zm9.5-2.7h5.928V0H87.78Zm2.964-2.85a3.76,3.76,0,0,1-2.66-.95A3.081,3.081,0,0,1,87.058-26.6a3.081,3.081,0,0,1,1.026-2.356,3.76,3.76,0,0,1,2.66-.95,3.854,3.854,0,0,1,2.66.912,2.924,2.924,0,0,1,1.026,2.28,3.227,3.227,0,0,1-1.03,2.451,3.716,3.716,0,0,1-2.656.969ZM107.882.3a12.259,12.259,0,0,1-5.795-1.349,10.028,10.028,0,0,1-4.009-3.743,10.313,10.313,0,0,1-1.444-5.434,10.313,10.313,0,0,1,1.444-5.434,10.028,10.028,0,0,1,4.009-3.743,12.259,12.259,0,0,1,5.8-1.349,12.146,12.146,0,0,1,5.776,1.349,10.06,10.06,0,0,1,3.99,3.743,10.313,10.313,0,0,1,1.444,5.434,10.313,10.313,0,0,1-1.444,5.434,10.06,10.06,0,0,1-3.99,3.743A12.146,12.146,0,0,1,107.882.3Zm0-4.864A4.937,4.937,0,0,0,111.625-6.1a5.737,5.737,0,0,0,1.463-4.123,5.737,5.737,0,0,0-1.463-4.123,4.937,4.937,0,0,0-3.743-1.539,5,5,0,0,0-3.762,1.539,5.693,5.693,0,0,0-1.482,4.123A5.693,5.693,0,0,0,104.12-6.1a5,5,0,0,0,3.762,1.54Z" transform="translate(100 67)" fill="#fff"/>
    <line id="Line_1" data-name="Line 1" x2="114" transform="translate(95.828 57.228)" fill="none"/>
  </g>
</svg>
