<svg xmlns="http://www.w3.org/2000/svg" width="180.255" height="48.169" viewBox="0 0 180.255 48.169"><g transform="translate(-36.837 -33.141)"><g transform="translate(38.337 34.687)"><path d="M6.5,9.59V48.5a2.824,2.824,0,0,0,4.159,2.7L43.917,31.3a2.69,2.69,0,0,0,0-4.505L10.659,6.886A2.824,2.824,0,0,0,6.5,9.59Z" transform="translate(-6.5 -6.505)" fill="none" stroke="#fff" stroke-miterlimit="10" stroke-width="3"/><path d="M2.263,0A2.263,2.263,0,1,1,0,2.263,2.263,2.263,0,0,1,2.263,0Z" transform="translate(19.719 20.344)" fill="none" stroke="#fff" stroke-linecap="round" stroke-width="3"/><path d="M2.263,0A2.263,2.263,0,1,1,0,2.263,2.263,2.263,0,0,1,2.263,0Z" transform="translate(7.647 13.555)" fill="none" stroke="#fff" stroke-linecap="round" stroke-width="3"/><path d="M2.263,0A2.263,2.263,0,1,1,0,2.263,2.263,2.263,0,0,1,2.263,0Z" transform="translate(7.647 27.134)" fill="none" stroke="#fff" stroke-linecap="round" stroke-width="3"/><path d="M0,4.571,8.127,0" transform="translate(11.882 23.717)" fill="none" stroke="#fff" stroke-linecap="round" stroke-width="3"/><path d="M8.127,4.571,0,0" transform="translate(11.882 16.927)" fill="none" stroke="#fff" stroke-linecap="round" stroke-width="3"/></g><path d="M14.82-20.748a10.419,10.419,0,0,1,5.187,1.311,9.414,9.414,0,0,1,3.667,3.686A11.128,11.128,0,0,1,25-10.222a11.128,11.128,0,0,1-1.33,5.529,9.414,9.414,0,0,1-3.667,3.686A10.419,10.419,0,0,1,14.82.3a7.9,7.9,0,0,1-6.156-2.47V7.372H2.736V-20.444H8.4v2.356A7.862,7.862,0,0,1,14.82-20.748ZM13.794-4.56A4.937,4.937,0,0,0,17.537-6.1,5.737,5.737,0,0,0,19-10.222a5.737,5.737,0,0,0-1.463-4.123,4.937,4.937,0,0,0-3.743-1.539,4.937,4.937,0,0,0-3.743,1.539,5.737,5.737,0,0,0-1.463,4.123A5.737,5.737,0,0,0,10.051-6.1,4.937,4.937,0,0,0,13.794-4.56Zm34.124-5.586q0,.114-.114,1.6H32.338a4.817,4.817,0,0,0,1.976,3,6.545,6.545,0,0,0,3.876,1.1,7.849,7.849,0,0,0,2.831-.475,6.857,6.857,0,0,0,2.3-1.5L46.474-3Q43.586.3,38.038.3A13.345,13.345,0,0,1,31.92-1.045a9.889,9.889,0,0,1-4.1-3.743,10.313,10.313,0,0,1-1.444-5.434A10.447,10.447,0,0,1,27.8-15.637,9.983,9.983,0,0,1,31.711-19.4a11.492,11.492,0,0,1,5.567-1.349,11.4,11.4,0,0,1,5.434,1.292,9.43,9.43,0,0,1,3.819,3.7A11.048,11.048,0,0,1,47.918-10.146Zm-10.6-6.118a5.105,5.105,0,0,0-3.382,1.14,4.853,4.853,0,0,0-1.672,3.116h10.07a4.9,4.9,0,0,0-1.672-3.1A5,5,0,0,0,37.316-16.264Zm21.166-4.484q4.75,0,7.3,2.261t2.546,6.821V0H62.776V-2.546Q61.1.3,56.544.3a9.672,9.672,0,0,1-4.085-.8,6.091,6.091,0,0,1-2.641-2.2,5.736,5.736,0,0,1-.912-3.192,5.327,5.327,0,0,1,2.147-4.484q2.147-1.634,6.631-1.634H62.4a3.778,3.778,0,0,0-1.178-2.983,5.189,5.189,0,0,0-3.534-1.045,10.319,10.319,0,0,0-3.211.513,8.5,8.5,0,0,0-2.679,1.387l-2.128-4.142A12.84,12.84,0,0,1,53.675-20.1,17.959,17.959,0,0,1,58.482-20.748ZM58.026-3.686a5.163,5.163,0,0,0,2.7-.7A3.847,3.847,0,0,0,62.4-6.46V-8.55H58.33q-3.648,0-3.648,2.394a2.132,2.132,0,0,0,.893,1.8A4.023,4.023,0,0,0,58.026-3.686ZM78.28-17.746a6.592,6.592,0,0,1,2.869-2.242,10.648,10.648,0,0,1,4.161-.76v5.472q-.988-.076-1.33-.076a5.434,5.434,0,0,0-3.99,1.425,5.759,5.759,0,0,0-1.444,4.275V0H72.618V-20.444H78.28Zm9.5-2.7h5.928V0H87.78Zm2.964-2.85a3.76,3.76,0,0,1-2.66-.95A3.081,3.081,0,0,1,87.058-26.6a3.081,3.081,0,0,1,1.026-2.356,3.76,3.76,0,0,1,2.66-.95,3.854,3.854,0,0,1,2.66.912,2.924,2.924,0,0,1,1.026,2.28A3.227,3.227,0,0,1,93.4-24.263,3.716,3.716,0,0,1,90.744-23.294ZM107.882.3a12.259,12.259,0,0,1-5.795-1.349,10.028,10.028,0,0,1-4.009-3.743,10.313,10.313,0,0,1-1.444-5.434,10.313,10.313,0,0,1,1.444-5.434,10.028,10.028,0,0,1,4.009-3.743,12.259,12.259,0,0,1,5.795-1.349,12.146,12.146,0,0,1,5.776,1.349,10.06,10.06,0,0,1,3.99,3.743,10.313,10.313,0,0,1,1.444,5.434,10.313,10.313,0,0,1-1.444,5.434,10.06,10.06,0,0,1-3.99,3.743A12.146,12.146,0,0,1,107.882.3Zm0-4.864A4.937,4.937,0,0,0,111.625-6.1a5.737,5.737,0,0,0,1.463-4.123,5.737,5.737,0,0,0-1.463-4.123,4.937,4.937,0,0,0-3.743-1.539,5,5,0,0,0-3.762,1.539,5.693,5.693,0,0,0-1.482,4.123A5.693,5.693,0,0,0,104.12-6.1,5,5,0,0,0,107.882-4.56Z" transform="translate(98 67)" fill="#fff"/></g></svg>