<svg xmlns="http://www.w3.org/2000/svg" width="1661.453" height="418.303" viewBox="0 0 1661.453 418.303"><g transform="translate(-113 -71.843)"><path d="M3,0A3,3,0,1,1,0,3,3,3,0,0,1,3,0Z" transform="translate(158 476)" fill="#fff"/><path d="M2.5,0A2.5,2.5,0,1,1,0,2.5,2.5,2.5,0,0,1,2.5,0Z" transform="translate(113 427)" fill="#fff"/><path d="M1.5,0A1.5,1.5,0,1,1,0,1.5,1.5,1.5,0,0,1,1.5,0Z" transform="matrix(0.966, -0.259, 0.259, 0.966, 155.438, 394.732)" fill="#fff"/><path d="M3,0A3,3,0,1,1,0,3,3,3,0,0,1,3,0Z" transform="translate(288.896 238.52) rotate(99)" fill="#fff"/><path d="M2.5,0A2.5,2.5,0,1,1,0,2.5,2.5,2.5,0,0,1,2.5,0Z" transform="translate(504.371 111.509) rotate(99)" fill="#fff"/><path d="M1.5,0A1.5,1.5,0,1,1,0,1.5,1.5,1.5,0,0,1,1.5,0Z" transform="matrix(0.105, 0.995, -0.995, 0.105, 429.132, 248.703)" fill="#fff"/><path d="M3,0A3,3,0,1,1,0,3,3,3,0,0,1,3,0Z" transform="translate(871.866 83.959) rotate(-82)" fill="#fff"/><path d="M2.5,0A2.5,2.5,0,1,1,0,2.5,2.5,2.5,0,0,1,2.5,0Z" transform="translate(817.08 121.702) rotate(-82)" fill="#fff"/><path d="M1.5,0A1.5,1.5,0,1,1,0,1.5,1.5,1.5,0,0,1,1.5,0Z" transform="translate(791.033 75.186) rotate(-97)" fill="#fff"/><path d="M3,0A3,3,0,1,1,0,3,3,3,0,0,1,3,0Z" transform="matrix(-0.899, -0.438, 0.438, -0.899, 1277.839, 165.748)" fill="#fff"/><path d="M2.5,0A2.5,2.5,0,1,1,0,2.5,2.5,2.5,0,0,1,2.5,0Z" transform="matrix(-0.899, -0.438, 0.438, -0.899, 1314.331, 252.139)" fill="#fff"/><path d="M1.5,0A1.5,1.5,0,1,1,0,1.5,1.5,1.5,0,0,1,1.5,0Z" transform="translate(1215.309 262.537) rotate(-169)" fill="#fff"/><path d="M3,0A3,3,0,1,1,0,3,3,3,0,0,1,3,0Z" transform="translate(1765.989 281.206) rotate(-49)" fill="#fff"/><path d="M2.5,0A2.5,2.5,0,1,1,0,2.5,2.5,2.5,0,0,1,2.5,0Z" transform="translate(1699.485 283.021) rotate(-49)" fill="#fff"/><path d="M1.5,0A1.5,1.5,0,1,1,0,1.5,1.5,1.5,0,0,1,1.5,0Z" transform="matrix(0.438, -0.899, 0.899, 0.438, 1702.975, 229.823)" fill="#fff"/><path d="M3,0A3,3,0,1,1,0,3,3,3,0,0,1,3,0Z" transform="translate(1445.316 482.95) rotate(77)" fill="#fff"/><path d="M2.5,0A2.5,2.5,0,1,1,0,2.5,2.5,2.5,0,0,1,2.5,0Z" transform="translate(1342.07 400.662) rotate(77)" fill="#fff"/><path d="M1.5,0A1.5,1.5,0,1,1,0,1.5,1.5,1.5,0,0,1,1.5,0Z" transform="translate(1286.448 396.684) rotate(62)" fill="#fff"/><path d="M3,0A3,3,0,1,1,0,3,3,3,0,0,1,3,0Z" transform="translate(871.866 83.959) rotate(-82)" fill="#fff"/></g></svg>